<?xml version="1.0" standalone="no"?><!DOCTYPE svg PUBLIC "-//W3C//DTD SVG 1.1//EN" "http://www.w3.org/Graphics/SVG/1.1/DTD/svg11.dtd"><svg t="1601301688326" class="icon" viewBox="256 32 512 960" version="1.1" xmlns="http://www.w3.org/2000/svg" p-id="8014" xmlns:xlink="http://www.w3.org/1999/xlink" width="128" height="128"><defs><style type="text/css"></style></defs><path d="M938.666667 725.333333v85.333334H341.333333v-85.333334h597.333334z m0-256v85.333334H341.333333v-85.333334h597.333334z m0-256v85.333334H341.333333V213.333333h597.333334zM170.666667 853.333333a85.333333 85.333333 0 1 1 0-170.666666 85.333333 85.333333 0 0 1 0 170.666666z m0-256a85.333333 85.333333 0 1 1 0-170.666666 85.333333 85.333333 0 0 1 0 170.666666z m0-256a85.333333 85.333333 0 1 1 0-170.666666 85.333333 85.333333 0 0 1 0 170.666666z" p-id="8015"></path></svg>
