<?xml version="1.0" standalone="no"?><!DOCTYPE svg PUBLIC "-//W3C//DTD SVG 1.1//EN" "http://www.w3.org/Graphics/SVG/1.1/DTD/svg11.dtd"><svg t="1601301551128" class="icon" viewBox="128 128 768 768" version="1.1" xmlns="http://www.w3.org/2000/svg" p-id="7284" xmlns:xlink="http://www.w3.org/1999/xlink" width="128" height="128"><defs><style type="text/css"></style></defs><path d="M795.306667 187.733333H233.813333c-39.253333 0-69.973333 30.72-69.973333 69.973334v508.586666c0 39.253333 30.72 69.973333 69.973333 69.973334h559.786667c39.253333 0 69.973333-30.72 69.973333-69.973334V257.706667c1.706667-39.253333-30.72-69.973333-68.266666-69.973334zM233.813333 802.133333c-18.773333 0-35.84-15.36-35.84-35.84V257.706667c0-18.773333 15.36-35.84 35.84-35.84h151.893334v580.266666h-151.893334z m187.733334 0V221.866667h187.733333v580.266666h-187.733333z m409.6-35.84c0 18.773333-15.36 35.84-35.84 35.84h-151.893334V221.866667h151.893334c18.773333 0 35.84 15.36 35.84 35.84v508.586666z" p-id="7285"></path><path d="M293.546667 315.733333m-25.6 0a25.6 25.6 0 1 0 51.2 0 25.6 25.6 0 1 0-51.2 0Z" p-id="7286"></path><path d="M293.546667 401.066667m-25.6 0a25.6 25.6 0 1 0 51.2 0 25.6 25.6 0 1 0-51.2 0Z" p-id="7287"></path><path d="M320.853333 563.2h-56.32c-8.533333 0-13.653333 6.826667-13.653333 13.653333v5.12c0 8.533333 6.826667 13.653333 13.653333 13.653334h56.32c8.533333 0 13.653333-6.826667 13.653334-13.653334v-5.12c1.706667-6.826667-5.12-13.653333-13.653334-13.653333zM320.853333 631.466667h-56.32c-8.533333 0-13.653333 6.826667-13.653333 13.653333v5.12c0 8.533333 6.826667 13.653333 13.653333 13.653333h56.32c8.533333 0 13.653333-6.826667 13.653334-13.653333v-5.12c1.706667-6.826667-5.12-13.653333-13.653334-13.653333zM320.853333 699.733333h-56.32c-8.533333 0-13.653333 6.826667-13.653333 13.653334v5.12c0 8.533333 6.826667 13.653333 13.653333 13.653333h56.32c8.533333 0 13.653333-6.826667 13.653334-13.653333v-5.12c1.706667-6.826667-5.12-13.653333-13.653334-13.653334z" p-id="7288"></path><path d="M515.413333 315.733333m-25.6 0a25.6 25.6 0 1 0 51.2 0 25.6 25.6 0 1 0-51.2 0Z" p-id="7289"></path><path d="M515.413333 401.066667m-25.6 0a25.6 25.6 0 1 0 51.2 0 25.6 25.6 0 1 0-51.2 0Z" p-id="7290"></path><path d="M542.72 563.2h-56.32c-8.533333 0-13.653333 6.826667-13.653333 13.653333v5.12c0 8.533333 6.826667 13.653333 13.653333 13.653334h56.32c8.533333 0 13.653333-6.826667 13.653333-13.653334v-5.12c1.706667-6.826667-5.12-13.653333-13.653333-13.653333zM542.72 631.466667h-56.32c-8.533333 0-13.653333 6.826667-13.653333 13.653333v5.12c0 8.533333 6.826667 13.653333 13.653333 13.653333h56.32c8.533333 0 13.653333-6.826667 13.653333-13.653333v-5.12c1.706667-6.826667-5.12-13.653333-13.653333-13.653333zM542.72 699.733333h-56.32c-8.533333 0-13.653333 6.826667-13.653333 13.653334v5.12c0 8.533333 6.826667 13.653333 13.653333 13.653333h56.32c8.533333 0 13.653333-6.826667 13.653333-13.653333v-5.12c1.706667-6.826667-5.12-13.653333-13.653333-13.653334z" p-id="7291"></path><path d="M737.28 315.733333m-25.6 0a25.6 25.6 0 1 0 51.2 0 25.6 25.6 0 1 0-51.2 0Z" p-id="7292"></path><path d="M737.28 401.066667m-25.6 0a25.6 25.6 0 1 0 51.2 0 25.6 25.6 0 1 0-51.2 0Z" p-id="7293"></path><path d="M764.586667 563.2h-56.32c-8.533333 0-13.653333 6.826667-13.653334 13.653333v5.12c0 8.533333 6.826667 13.653333 13.653334 13.653334h56.32c8.533333 0 13.653333-6.826667 13.653333-13.653334v-5.12c1.706667-6.826667-5.12-13.653333-13.653333-13.653333zM764.586667 631.466667h-56.32c-8.533333 0-13.653333 6.826667-13.653334 13.653333v5.12c0 8.533333 6.826667 13.653333 13.653334 13.653333h56.32c8.533333 0 13.653333-6.826667 13.653333-13.653333v-5.12c1.706667-6.826667-5.12-13.653333-13.653333-13.653333zM764.586667 699.733333h-56.32c-8.533333 0-13.653333 6.826667-13.653334 13.653334v5.12c0 8.533333 6.826667 13.653333 13.653334 13.653333h56.32c8.533333 0 13.653333-6.826667 13.653333-13.653333v-5.12c1.706667-6.826667-5.12-13.653333-13.653333-13.653334z" p-id="7294"></path></svg>
