<?xml version="1.0" standalone="no"?><!DOCTYPE svg PUBLIC "-//W3C//DTD SVG 1.1//EN" "http://www.w3.org/Graphics/SVG/1.1/DTD/svg11.dtd"><svg t="1601296990326" class="icon" viewBox="0 0 1024 1024" version="1.1" xmlns="http://www.w3.org/2000/svg" p-id="4391" xmlns:xlink="http://www.w3.org/1999/xlink" width="128" height="128"><defs><style type="text/css"></style></defs><path d="M1013.0432 656.1792a41.0112 41.0112 0 0 0-56.5248-12.1856l-447.8464 288.5632-445.5936-287.1808a41.0112 41.0112 0 0 0-56.5248 12.288 41.0112 41.0112 0 0 0 12.2368 56.5248l466.0224 300.3392c3.2256 2.2528 6.8096 4.096 10.496 5.376 0.3072 0.1536 0.4096 0.1536 0.5632 0.3072 0.3072 0.1536 0.4096 0.1536 0.8704 0.256 0.4096 0.1536 0.8192 0.3072 1.28 0.3072h0.1024a44.032 44.032 0 0 0 9.5232 1.4336h1.8432a42.8032 42.8032 0 0 0 9.5232-1.4336h0.1536a4.1472 4.1472 0 0 1 1.28-0.3072c0.3072-0.1024 0.5632-0.1024 0.8704-0.256s0.4096-0.1536 0.512-0.3072a43.3152 43.3152 0 0 0 10.5472-5.376l468.48-301.7728a40.9088 40.9088 0 0 0 12.1856-56.576z" p-id="4392"></path><path d="M1013.0432 490.496a41.0112 41.0112 0 0 0-56.5248-12.1856l-447.8464 288.4096L63.0272 479.744a41.0112 41.0112 0 0 0-56.5248 12.1856 41.0112 41.0112 0 0 0 12.2368 56.576l466.0224 300.3392c3.2256 2.304 6.8096 4.096 10.496 5.4272 0.3072 0.1024 0.4096 0.1024 0.5632 0.256l0.8704 0.3072a4.1472 4.1472 0 0 0 1.28 0.256h0.1024a44.032 44.032 0 0 0 9.5232 1.4336h1.8432a42.8032 42.8032 0 0 0 9.5232-1.4336h0.1536a4.1472 4.1472 0 0 1 1.28-0.256l0.8704-0.3072 0.512-0.256a43.3152 43.3152 0 0 0 10.5472-5.4272l468.3264-301.6192a40.96 40.96 0 0 0 12.3392-56.6784z" p-id="4393"></path><path d="M1000.8064 310.3744L532.5312 8.6016a43.3152 43.3152 0 0 0-10.496-5.4272c-0.3072-0.1024-0.4608-0.1024-0.5632-0.256-0.3072-0.1536-0.6144-0.1536-0.8704-0.3072-0.4096-0.1024-0.8704-0.256-1.28-0.256h-0.1536a44.032 44.032 0 0 0-9.5232-1.4336h-1.8432a42.8032 42.8032 0 0 0-9.5232 1.4336h-0.1536a4.1472 4.1472 0 0 1-1.28 0.256c-0.256 0.1536-0.512 0.1536-0.8192 0.3072l-0.5632 0.256a43.3152 43.3152 0 0 0-10.5472 5.4272L18.8928 308.9408a40.704 40.704 0 0 0-18.5856 36.6592 40.8576 40.8576 0 0 0 18.5856 36.6592l466.0224 300.3392c3.2768 2.304 6.8608 4.096 10.5472 5.4272l0.512 0.256 0.8704 0.3072c0.4608 0.1536 0.8704 0.3072 1.28 0.3072h0.1536a44.032 44.032 0 0 0 9.5232 1.3824h1.8432a42.8032 42.8032 0 0 0 9.5232-1.3824h0.1536a4.1472 4.1472 0 0 1 1.28-0.3072c0.256-0.1536 0.5632-0.1536 0.8704-0.3072s0.4096-0.1024 0.512-0.256a43.3152 43.3152 0 0 0 10.5472-5.4272l468.2752-301.7728a40.8576 40.8576 0 0 0 18.7904-35.2256 40.8576 40.8576 0 0 0-18.7904-35.2256z" p-id="4394"></path></svg>