<?xml version="1.0" standalone="no"?><!DOCTYPE svg PUBLIC "-//W3C//DTD SVG 1.1//EN" "http://www.w3.org/Graphics/SVG/1.1/DTD/svg11.dtd"><svg t="1601916842540" class="icon" viewBox="0 0 1024 1024" version="1.1" xmlns="http://www.w3.org/2000/svg" p-id="4158" xmlns:xlink="http://www.w3.org/1999/xlink" width="32" height="32"><defs><style type="text/css"></style></defs><path d="M624.1792 207.3088v119.296c0 3.9936 3.584 7.5264 7.5776 7.5264h119.296L624.128 207.36z m169.6256 188.2624h-162.048a69.12 69.12 0 0 1-68.9664-68.9664V163.84h-190.464a7.7312 7.7312 0 0 0-7.5264 7.5264v551.8848c0 4.0448 3.5328 7.5776 7.5264 7.5776h413.952a7.7312 7.7312 0 0 0 7.5264-7.5776v-327.68z m-73.1648 396.6976v60.3648A69.12 69.12 0 0 1 651.6736 921.6H237.7216a69.12 69.12 0 0 1-68.9664-68.9664V300.6976c0-37.888 31.0272-68.9664 68.9664-68.9664h65.6384V171.3664A69.12 69.12 0 0 1 372.3264 102.4h205.312c18.2784 0 35.84 7.2704 48.7936 20.224l208.5888 208.5888c12.9536 12.9536 20.224 30.5152 20.224 48.7936v343.2448c0 37.9392-31.0272 69.0176-68.9664 69.0176h-65.6384z m-417.28-499.0976H237.7216a7.7312 7.7312 0 0 0-7.5264 7.5776v551.8848c0 3.9936 3.584 7.5264 7.5264 7.5264h413.952a7.7312 7.7312 0 0 0 7.5264-7.5264v-60.3648H372.3264a69.2224 69.2224 0 0 1-68.9664-69.0176v-430.08z m397.4144 260.7616h-275.968a30.72 30.72 0 0 1 0-61.44h275.968a30.72 30.72 0 1 1 0 61.44m-137.984 116.1728H424.8064a30.72 30.72 0 0 1 0-61.44h137.984a30.72 30.72 0 1 1 0 61.44" p-id="4159"></path></svg>