<?xml version="1.0" standalone="no"?><!DOCTYPE svg PUBLIC "-//W3C//DTD SVG 1.1//EN" "http://www.w3.org/Graphics/SVG/1.1/DTD/svg11.dtd"><svg t="1708936309349" class="icon" viewBox="0 0 1024 1024" version="1.1" xmlns="http://www.w3.org/2000/svg" p-id="25323" xmlns:xlink="http://www.w3.org/1999/xlink" width="200" height="200"><path d="M81.738 847.61a129.654 129.654 0 0 0-1.215 23.144c2.238 61.63 48.013 115.205 115.397 139.116 24.103 8.567 50.187 13.042 77.038 13.042 20.842 0 41.236-2.685 60.672-7.928 67.064-18.029 117.379-65.082 129.142-122.877l0.192-0.64c21.098 5.243 43.154 7.928 65.658 7.928 22.057 0 43.666-2.557 64.316-7.608l0.192 0.768c11.955 57.602 62.206 104.4 129.142 122.43 19.372 5.242 39.766 7.927 60.608 7.927 26.851 0 52.936-4.475 77.038-13.042 67.384-23.91 113.16-77.486 115.397-139.116l0.064-4.667-0.064 4.667c-2.237 61.63-48.013 115.205-115.397 139.116a230.41 230.41 0 0 1-77.038 13.042 233.352 233.352 0 0 1-60.608-7.928c-66.936-18.029-117.187-64.827-129.142-122.43l-0.192-0.767a272.67 272.67 0 0 1-64.316 7.672c-22.504 0-44.56-2.749-65.658-7.991l-0.128 0.639c-11.827 57.795-62.142 104.848-129.206 122.877a233.16 233.16 0 0 1-60.736 7.928c-26.851 0-52.935-4.475-77.038-13.042-67.384-23.91-113.16-77.486-115.397-139.116l-0.064-4.667c0-6.138 0.448-12.34 1.279-18.477z m4.539-21.161c68.727-395.1 102.803-570.274 116.164-584.339 20.842-21.736 52.552-31.902 105.488-30.623 32.286 0.831 56.644 9.206 71.732 18.604L308.185 686.31a150.88 150.88 0 0 0-3.197 25.125 236.804 236.804 0 0 0-31.966-2.173 225.04 225.04 0 0 0-103.442 24.485c-16.175 8.312-29.728 18.285-46.03 34.012a163.282 163.282 0 0 0-37.273 58.69z m385.19-816.22a152.286 152.286 0 0 1 31.966-8.055 173.511 173.511 0 0 1 42.835-0.96c11.571 1.535 24.23 4.476 37.975 8.695l28.961 183.23h-0.447l60.863 385.893a232.649 232.649 0 0 0-42.706-23.207 265.957 265.957 0 0 0-102.292-20.011 262.121 262.121 0 0 0-120.448 28.45c-8.566 4.475-16.75 9.334-24.422 14.704l58.882-373.235h-0.32l29.153-195.376zM677.456 229.26c15.216-9.078 39.062-17.07 70.517-17.837 48.205-1.15 85.03 12.275 104.529 29.856 10.485 9.398 40.469 163.922 117.251 586.96a135.152 135.152 0 0 1 0.064 0.256c-5.626-19.691-23.016-49.931-42.898-66.554-20.586-17.261-24.295-19.818-40.661-28.257a225.04 225.04 0 0 0-103.378-24.486c-10.23 0-20.458 0.639-30.624 1.981a150.432 150.432 0 0 0-1.918-18.22l-0.959-5.37-71.923-458.393z m-28.258 648.398l-1.023-6.393c44.753-22.887 78.38-58.178 94.172-99.734l10.101-1.726c9.974-1.726 20.203-2.557 30.432-2.557 27.618 0 54.15 6.201 76.782 17.9 28.066 14.513 47.95 36.314 54.215 58.37 5.69 19.947-3.964 59.33-16.879 74.418a131.7 131.7 0 0 1-56.388 37.208 171.977 171.977 0 0 1-57.73 9.718c-15.663 0-31.007-1.982-45.648-5.946-26.531-7.096-49.994-20.778-65.977-38.104a84.007 84.007 0 0 1-22.057-43.154zM314.962 771.915c15.727 40.916 48.844 75.823 92.765 98.71l-1.023 6.522a83.75 83.75 0 0 1-22.12 43.665c-15.983 17.326-39.447 31.008-65.978 38.104a175.365 175.365 0 0 1-45.648 5.946 171.977 171.977 0 0 1-57.73-9.718 131.636 131.636 0 0 1-56.388-37.208 80.363 80.363 0 0 1-20.459-49.356v-2.557l0.064-4.348 3.836-19.435c6.969-21.609 26.085-42.707 53.895-57.091 22.632-11.7 49.228-17.965 76.782-17.965 10.677 0 21.354 0.959 31.774 2.877l10.23 1.854z m47.757-54.342c0-2.558 0.128-5.115 0.32-7.672l2.173-13.746c7.16-31.518 32.094-60.927 69.558-80.362a204.582 204.582 0 0 1 93.852-21.993c27.939 0 55.621 5.37 80.043 15.536 45.2 18.86 76.08 52.232 83.879 89.377l1.47 9.206c0.32 3.26 0.512 6.393 0.512 9.462v0.959a98.711 98.711 0 0 1-12.723 46.414 125.17 125.17 0 0 1-16.366 22.377c-8.95 9.717-19.947 18.54-32.414 26.212a183.165 183.165 0 0 1-48.78 20.778 214.044 214.044 0 0 1-55.62 7.224 209.697 209.697 0 0 1-70.39-11.827c-2.749-0.96-2.749-0.96-5.434-2.046a179.649 179.649 0 0 1-30.304-15.152 147.3 147.3 0 0 1-33.884-28.77 117.955 117.955 0 0 1-12.594-17.837 99.862 99.862 0 0 1-13.234-44.88l-0.064-3.26z" p-id="25324"></path></svg>