<?xml version="1.0" standalone="no"?><!DOCTYPE svg PUBLIC "-//W3C//DTD SVG 1.1//EN" "http://www.w3.org/Graphics/SVG/1.1/DTD/svg11.dtd"><svg t="1708936084409" class="icon" viewBox="0 0 1183 1024" version="1.1" xmlns="http://www.w3.org/2000/svg" p-id="20585" xmlns:xlink="http://www.w3.org/1999/xlink" width="231.0546875" height="200"><path d="M573.286004 173.620761l-1.474964 300.192671-242.744074-143.371499V100.322551h-49.998779v233.644296l-277.343229 157.496154L0 844.479383l303.94258 179.520617 305.892531-173.695759 1.474964-300.192671 242.744074 143.396499v231.794341h49.998779v-235.319255l277.343229-157.496155 1.724958-353.041381L879.178536-0.074998z m-13.299676 647.484192l-255.518761 144.996461-254.318791-150.221333 1.424965-295.31779 255.518762-144.99646 254.318791 150.246332z m571.561046-317.692243l-255.518761 144.99646-254.318791-150.246332 1.424965-295.367789 255.518761-144.99646L1132.97234 208.044921z" p-id="20586"></path><path d="M479.063304 575.310954h49.998779v199.995118h-49.998779z" p-id="20587"></path><path d="M109.37233 538.936842l167.845902-95.597666 24.749396 43.44894-167.845902 95.622665z" p-id="20588"></path><path d="M109.77232 783.98086l25.39938-43.073949 166.395938 98.147604-25.42438 43.073949z" p-id="20589"></path><path d="M859.75401 158.996118l25.39938-43.048949 166.320939 98.122605-25.39938 43.048949z" p-id="20590"></path></svg>