<?xml version="1.0" standalone="no"?><!DOCTYPE svg PUBLIC "-//W3C//DTD SVG 1.1//EN" "http://www.w3.org/Graphics/SVG/1.1/DTD/svg11.dtd"><svg t="1708937437444" class="icon" viewBox="0 0 1024 1024" version="1.1" xmlns="http://www.w3.org/2000/svg" p-id="55860" xmlns:xlink="http://www.w3.org/1999/xlink" width="200" height="200"><path d="M762.88 893.44c0 43.52-35.84 79.36-79.36 79.36H332.8c-43.52 0-79.36-35.84-79.36-79.36v-747.52C253.44 102.4 289.28 66.56 332.8 66.56h350.72c43.52 0 79.36 35.84 79.36 79.36m-51.2 0c0-15.36-12.8-28.16-28.16-28.16H332.8c-15.36 0-28.16 12.8-28.16 28.16v747.52c0 15.36 12.8 28.16 28.16 28.16h350.72c15.36 0 28.16-12.8 28.16-28.16" p-id="55861"></path><path d="M619.52 448H396.8c-31.232 0-56.32-25.088-56.32-56.32V209.92c0-31.232 25.088-56.32 56.32-56.32H619.52c31.232 0 56.32 25.088 56.32 56.32v181.76c0 31.232-25.088 56.32-56.32 56.32zM396.8 184.32c-14.336 0-25.6 11.776-25.6 25.6v181.76c0 14.336 11.776 25.6 25.6 25.6H619.52c14.336 0 25.6-11.776 25.6-25.6V209.92c0-14.336-11.776-25.6-25.6-25.6H396.8z" p-id="55862"></path><path d="M724.48 432.64s-20.48 87.04-46.08 87.04-286.72 15.36-286.72 15.36-23.04 12.8-23.04 40.96V926.72" fill="#FFFFFF" p-id="55863"></path><path d="M384 926.72h-30.72v-350.72c0-36.864 29.696-53.76 30.72-54.272l3.072-1.536h3.584c10.752-0.512 257.536-15.36 286.72-15.36 8.704-4.608 23.552-39.936 31.744-75.264l29.696 7.168c-8.704 36.864-28.16 98.816-60.928 98.816-23.04 0-247.808 13.312-281.6 14.848-4.096 3.584-12.8 11.776-12.8 26.112V926.72z" p-id="55864"></path><path d="M460.8 468.48h96.256v25.6H460.8zM463.872 769.024l-0.512-21.504c7.68 0 18.432-0.512 32.256-1.536v-15.872h-30.72v-20.48c4.096-13.312 7.68-26.624 10.752-39.424h-12.288V650.24h16.384c1.536-7.68 3.072-14.848 4.096-22.016l20.992 2.56-4.608 19.456h27.648v19.456H496.64c-3.584 13.824-6.656 27.136-10.752 39.936h9.728V680.96h20.48v28.672h13.312v20.48h-13.312v15.36l13.824-0.512v20.48l-13.824 1.024v33.792h-20.48V768l-31.744 1.024z m69.12-118.272h37.888V629.76h21.504v20.992h16.896c-3.072-4.608-6.656-9.216-10.24-13.312l15.872-9.216c5.632 5.632 9.728 11.264 13.824 16.384l-10.752 6.144h15.872v18.944h-41.472v12.288h36.352v94.208c0 5.632-1.024 10.24-3.072 13.824s-5.12 5.632-8.704 6.656-10.752 1.536-20.992 1.024c-0.512-4.608-1.536-10.24-3.072-17.92 2.56 0.512 5.632 0.512 8.192 0.512 4.608 0 6.656-2.56 6.656-7.68v-11.264h-15.36v34.816h-21.504v-34.816h-15.36v37.376h-20.992v-116.736h36.864v-12.288h-37.888v-18.944z m22.528 64h15.36v-15.36h-15.36v15.36z m0 30.72h15.36v-14.848h-15.36v14.848z m52.224-46.08h-15.36v15.36h15.36v-15.36z m-15.36 46.08h15.36v-14.848h-15.36v14.848z" p-id="55865"></path></svg>