<?xml version="1.0" standalone="no"?><!DOCTYPE svg PUBLIC "-//W3C//DTD SVG 1.1//EN" "http://www.w3.org/Graphics/SVG/1.1/DTD/svg11.dtd"><svg t="1709803723247" class="icon" viewBox="0 0 1194 1024" version="1.1" xmlns="http://www.w3.org/2000/svg" p-id="6299" xmlns:xlink="http://www.w3.org/1999/xlink" width="233.203125" height="200"><path d="M988.814222 76.145778a51.996444 51.996444 0 0 0-70.883555-15.644445L48.184889 608.056889c-14.648889 9.415111-22.983111 23.978667-24.064 39.623111v8.305778c1.080889 8.305778 3.157333 16.725333 7.310222 22.983111l174.193778 273.265778c15.644444 23.978667 46.933333 31.288889 70.883555 15.644444l869.717334-547.555555c23.978667-15.644444 31.288889-46.933333 15.644444-70.883556l-173.056-273.294222z m139.832889 314.965333L258.787556 939.804444c-7.338667 5.233778-17.720889 2.048-22.983112-5.290666L61.724444 660.252444a16.782222 16.782222 0 0 1-2.076444-12.458666c1.109333-4.152889 3.185778-8.305778 7.338667-10.382222l869.717333-547.555556c4.181333-2.076444 8.334222-3.185778 12.487111-2.076444 4.152889 1.080889 8.305778 3.157333 10.382222 7.310222l174.165334 273.294222a17.607111 17.607111 0 0 1-5.12 22.755556zM260.835556 361.898667l29.212444 22.983111v-37.518222l31.288889-20.906667-35.441778-11.491556-10.410667-36.522666-21.873777 30.179555-37.518223-1.109333 21.902223 30.208-12.515556 35.441778 35.356445-11.264z m676.864 303.502222l-29.212445-22.983111v37.518222l-31.288889 21.020444 35.441778 11.491556 10.382222 35.441778 21.902222-30.179556 37.489778 1.080889-21.873778-30.179555 12.487112-35.441778-35.328 12.231111zM378.794667 218.055111l14.563555 34.474667 18.801778-32.398222 37.546667-3.185778-25.059556-28.103111 8.305778-36.551111-34.474667 15.644444-32.398222-19.797333 4.152889 37.546666-28.103111 23.950223 36.693333 8.419555z m214.755555 696.661333l17.720889 33.365334 15.644445-34.446222 36.551111-6.257778-28.131556-25.031111 5.262222-37.546667-32.398222 18.830222-33.365333-16.753778 7.338666 36.551112-26.026666 27.136 37.404444 4.152888z m6.343111-799.943111l-17.720889-33.365333-15.644444 34.474667-36.551111 7.338666 28.131555 25.031111-5.262222 37.546667 32.398222-18.830222 34.446223 15.644444-8.305778-36.551111 26.026667-27.136-37.518223-4.152889z m216.832 699.847111l-14.535111-34.474666-18.830222 32.426666-37.546667 3.128889 25.088 28.16-8.334222 36.522667 34.474667-14.563556 32.398222 19.825778-4.152889-37.546666 28.103111-23.950223-36.693333-9.528889z m24.064-739.441777c-42.752-22.983111-87.608889-40.675556-134.542222-51.086223C575.829333-5.12 440.291556 17.834667 327.68 88.746667 271.388444 124.188444 221.383111 171.121778 183.751111 226.360889a478.037333 478.037333 0 0 0-77.084444 175.274667 510.236444 510.236444 0 0 0-11.52 142.876444l34.474666-21.902222C125.44 365.226667 202.524444 208.782222 346.538667 119.096889a467.598222 467.598222 0 0 1 459.804444-22.983111l34.446222-20.906667zM350.577778 948.081778c41.671111 23.950222 87.608889 40.704 134.542222 51.086222 63.715556 14.563556 128.341333 16.782222 192.995556 5.262222 66.730667-10.382222 129.308444-35.441778 186.652444-70.883555 56.32-35.441778 106.325333-82.375111 143.957333-137.614223a501.845333 501.845333 0 0 0 88.632889-319.146666l-34.474666 21.76a464.440889 464.440889 0 0 1-216.945778 404.679111c-143.872 90.709333-319.146667 92.785778-460.913778 21.902222l-34.446222 22.954667z m392.078222-206.535111a282.510222 282.510222 0 0 1-129.308444 41.671111l-53.191112 33.365333c69.944889 8.305778 140.8-7.338667 201.329778-45.824 59.392-37.546667 105.358222-94.862222 127.232-161.706667l-53.191111 33.365334c-21.845333 40.675556-54.243556 74.183111-92.871111 99.128889zM449.678222 281.6a282.481778 282.481778 0 0 1 129.308445-41.671111l53.191111-33.365333a309.76 309.76 0 0 0-201.301334 45.824 310.528 310.528 0 0 0-127.232 161.706666l53.162667-33.365333A266.211556 266.211556 0 0 1 449.678222 281.6z m-31.146666 239.217778c-2.076444 16.725333-7.338667 35.413333-14.563556 56.32-16.725333 41.671111-29.212444 62.577778-37.518222 64.654222-4.152889 1.109333-8.305778 0-12.458667-2.076444a18.147556 18.147556 0 0 1-7.338667-10.382223c-1.109333-4.152889 0-8.305778 2.076445-12.458666 26.026667-39.594667 41.671111-79.217778 48.042667-118.926223a20.821333 20.821333 0 0 1 8.305777-13.568c4.152889-3.185778 9.386667-3.185778 13.568-2.076444 20.906667 6.229333 41.671111 9.386667 62.577778 10.382222 17.720889 1.109333 40.675556-1.109333 67.84-5.262222 5.262222-1.080889 9.386667 0 12.458667 3.185778 3.185778 3.185778 5.262222 6.257778 5.262222 10.382222 1.080889 5.262222 0 9.415111-3.185778 12.487111a19.996444 19.996444 0 0 1-11.491555 6.229333c-14.535111 2.076444-35.441778 2.076444-62.577778 1.080889-23.950222-2.076444-43.747556-5.233778-59.392-9.386666a10.467556 10.467556 0 0 0-8.305778 1.080889c-1.223111 2.076444-3.299556 4.152889-3.299555 8.305777z m79.303111 10.496c4.152889-2.076444 7.338667-3.185778 11.491555-2.076445a13.568 13.568 0 0 1 9.415111 7.338667c2.076444 4.152889 3.185778 7.338667 2.076445 11.491556a15.786667 15.786667 0 0 1-6.229334 9.386666l-89.713777 57.201778c-4.152889 2.076444-8.305778 3.185778-11.491556 2.076444a13.568 13.568 0 0 1-9.386667-7.310222c-2.104889-4.152889-3.185778-7.338667-2.104888-11.491555a13.568 13.568 0 0 1 7.338666-9.415111l88.604445-57.201778z m108.430222 88.604444l-29.212445-44.856889a28.330667 28.330667 0 0 0-17.720888-13.568 26.908444 26.908444 0 0 0-22.983112 4.152889l-101.091555 63.687111-11.491556 7.338667a28.330667 28.330667 0 0 0-13.539555 17.720889c-2.104889 8.305778 0 16.611556 4.152889 22.983111l29.212444 44.856889c4.152889 6.229333 10.382222 10.382222 18.688 12.458667 8.305778 0.967111 15.644444 0 21.902222-4.152889l113.635556-69.916445c6.257778-4.152889 10.382222-10.382222 12.458667-18.830222 1.223111-8.305778 0.142222-15.644444-4.010667-21.873778z m-35.441778 18.716445l-90.709333 57.315555c-3.157333 2.076444-6.229333 3.185778-9.386667 2.076445-3.185778 0-5.262222-2.076444-7.338667-4.152889l-16.753777-25.059556c-1.109333-2.076444-1.109333-5.262222-1.109334-8.305778 1.109333-3.185778 2.076444-5.262222 5.262223-7.338666l90.680888-57.315556c2.076444-2.076444 5.262222-2.076444 8.334223-0.995555 3.043556 1.109333 5.233778 3.185778 8.305777 3.185777l16.725334 25.031112a24.576 24.576 0 0 1 0.995555 8.334222 10.865778 10.865778 0 0 1-5.006222 7.224889z m247.125333-251.306667a22.243556 22.243556 0 0 0-6.257777-10.382222 18.688 18.688 0 0 0-13.539556-2.076445c-16.64 3.185778-32.398222 4.152889-46.933333 3.185778 4.152889-25.059556 4.152889-46.933333 0-64.654222-1.109333-8.334222-5.262222-13.568-11.491556-15.644445a18.261333 18.261333 0 0 0-17.720889 3.043556l-63.573333 40.675556c-10.382222 8.334222-13.539556 18.858667-9.386667 30.350222 3.157333 10.382222 3.157333 20.878222 1.080889 31.288889-1.080889 5.233778 0 10.382222 3.185778 13.539555 2.076444 3.185778 6.257778 4.181333 10.382222 5.262222 5.262222-0.967111 8.305778-0.967111 11.491556-3.043555 4.152889-3.185778 7.338667-12.600889 10.382222-26.026667 10.410667 4.152889 20.906667 7.310222 30.208 9.386667-10.410667 19.825778-19.797333 34.474667-29.212444 44.856889a27.761778 27.761778 0 0 0-3.185778 12.487111c-6.257778-3.185778-23.950222-8.334222-55.239111-17.720889l-0.995556-1.137778 15.644445-10.353778a14.791111 14.791111 0 0 0 6.257777-9.415111c1.080889-4.152889 0-7.338667-2.076444-11.491555a13.568 13.568 0 0 0-9.415111-7.338667c-4.152889-1.109333-7.338667 0-11.491556 2.076445l-15.644444 10.382222-16.753778-26.026667a18.147556 18.147556 0 0 0-10.382222-7.338667 14.364444 14.364444 0 0 0-11.491556 2.076445 13.568 13.568 0 0 0-7.338666 9.415111 10.524444 10.524444 0 0 0 3.185777 10.410667l16.753778 26.026666-14.677333 9.386667a13.568 13.568 0 0 0-7.338667 9.415111c-1.109333 4.181333 0 7.338667 2.076445 11.491556 2.076444 4.152889 5.262222 6.257778 9.415111 7.338666 3.185778 1.109333 7.338667 0 11.491555-2.076444l13.568-10.382222v1.109333c5.262222 23.950222 7.338667 48.014222 5.262222 70.883556-2.076444 6.229333-1.109333 11.491556 3.157334 15.644444 3.185778 2.076444 6.257778 4.152889 10.410666 4.152889s7.310222-2.076444 10.382223-4.152889c3.185778-3.185778 5.262222-6.257778 5.262222-11.491556 1.080889-7.338667 0-14.535111 0-22.983111l53.162667 82.375111c3.157333 4.152889 6.229333 7.338667 10.382222 8.305778 4.152889 1.109333 7.338667 0 11.491555-2.076444a14.791111 14.791111 0 0 0 6.229334-9.386667 26.254222 26.254222 0 0 0-3.185778-12.487111l-63.544889-99.128889c15.644444 7.338667 26.026667 9.415111 29.212444 8.334222a18.318222 18.318222 0 0 0 8.305778-7.338666c0-2.076444 0.967111-5.262222 0.967111-7.338667a27.761778 27.761778 0 0 0 12.487111 3.185778c11.491556-2.076444 26.026667-23.978667 43.747556-63.573334 0-0.967111 0-2.076444 0.967111-3.157333 22.983111 3.157333 42.780444 3.157333 59.420445 0 5.233778-1.137778 9.386667-3.185778 11.491555-6.257778 3.413333-3.299556 4.522667-6.343111 3.413333-11.605333z m-93.866666-16.611556l-0.967111 3.185778c-11.491556-2.076444-25.059556-7.338667-38.627556-13.568l2.076445-2.076444 29.212444-17.720889c2.076444-2.104889 4.152889-2.104889 6.229333 0 4.152889 4.010667 5.262222 13.425778 2.076445 30.151111z m137.728 94.833778l-30.151111-46.933333a20.593778 20.593778 0 0 0-13.596445-9.386667 25.173333 25.173333 0 0 0-18.830222 4.124445l-65.735111 41.699555-13.568 8.305778a18.375111 18.375111 0 0 0-9.415111 13.568 20.081778 20.081778 0 0 0 3.185778 15.644444l30.179555 46.933334a26.737778 26.737778 0 0 0 14.677333 11.491555c5.233778 2.076444 11.491556 0.967111 16.611556-2.076444l79.331556-49.009778c5.233778-4.152889 9.386667-8.334222 10.382222-15.644444a27.875556 27.875556 0 0 0-3.072-18.716445z m-34.446222 13.568l-55.239112 34.474667c-0.995556 1.109333-3.185778 2.076444-4.181333 1.109333-2.076444 0-3.157333-1.137778-4.152889-2.076444l-16.725333-25.059556c-0.995556-0.995556-0.995556-2.076444-0.995556-4.152889l3.185778-3.185777 55.239111-34.474667c1.109333-0.967111 2.076444-0.967111 4.152889-0.967111s3.185778 0.967111 3.185778 0.967111l16.611555 25.059555c1.137778 0.967111 1.137778 2.076444 1.137778 4.152889-0.142222 2.076444-1.137778 3.043556-2.218666 4.152889z" fill="#00BE2B" p-id="6300"></path></svg>