<?xml version="1.0" standalone="no"?><!DOCTYPE svg PUBLIC "-//W3C//DTD SVG 1.1//EN" "http://www.w3.org/Graphics/SVG/1.1/DTD/svg11.dtd"><svg t="1601297238800" class="icon" viewBox="0 0 1024 1024" version="1.1" xmlns="http://www.w3.org/2000/svg" p-id="7157" xmlns:xlink="http://www.w3.org/1999/xlink" width="128" height="128"><defs><style type="text/css"></style></defs><path d="M913.29024 168.96H114.82624C93.81888 168.96 76.8 186.01984 76.8 207.07328v609.85344c0 21.0432 17.024 38.11328 38.02112 38.11328h798.464c21.00224 0 38.02624-17.06496 38.02624-38.11328V207.07328c0-21.05344-17.024-38.11328-38.02112-38.11328zM266.9056 721.63328H152.84224v-57.16992h114.0736v57.16992z m0-95.2832H152.84224v-57.17504h114.0736v57.16992z m152.0896 95.2832H304.93184v-57.16992h114.06848v57.16992z m0-95.2832H304.93184v-57.17504h114.06848v57.16992z m152.0896 95.2832H457.02144v-57.16992h114.06848v57.16992z m0-95.2832H457.02144v-57.17504h114.06848v57.16992z m0-190.58176H152.84224V283.30496h418.24768v152.46336z m95.0528 362.09664h-19.01056V226.13504h19.01056v571.72992z m57.0368-57.17504l38.02112-152.45824h95.0528l38.02624 152.45824h-171.10016z" p-id="7158"></path></svg>