<?xml version="1.0" standalone="no"?><!DOCTYPE svg PUBLIC "-//W3C//DTD SVG 1.1//EN" "http://www.w3.org/Graphics/SVG/1.1/DTD/svg11.dtd"><svg t="1667879406747" class="icon" viewBox="0 0 1055 1024" version="1.1" xmlns="http://www.w3.org/2000/svg" p-id="15647" xmlns:xlink="http://www.w3.org/1999/xlink" width="206.0546875" height="200"><path d="M976.120242 13.653333H72.921212a56.32 56.32 0 0 0-56.475151 55.854546v163.343515a56.32 56.32 0 0 0 56.475151 55.885576h903.19903a56.32 56.32 0 0 0 56.475152-55.854546V69.507879A56.32 56.32 0 0 0 976.089212 13.653333z m-127.596606 179.479273h-162.288484c-23.272727 0-42.108121-18.742303-42.108122-41.890909 0-23.117576 18.835394-41.859879 42.108122-41.859879h162.288484c23.241697 0 42.077091 18.742303 42.077091 41.890909 0 23.117576-18.835394 41.890909-42.077091 41.890909z m127.007031 181.403152H72.921212a56.32 56.32 0 0 0-56.475151 55.854545v163.343515a56.32 56.32 0 0 0 56.475151 55.885576h903.19903a56.32 56.32 0 0 0 56.475152-55.854546v-163.498666a56.32 56.32 0 0 0-56.475152-55.730424h-0.620606z m-127.007031 179.355151h-162.288484c-23.272727 0-42.108121-18.773333-42.108122-41.890909 0-23.117576 18.835394-41.890909 42.108122-41.890909h162.288484c23.241697 0 42.077091 18.773333 42.077091 41.890909 0 23.117576-18.835394 41.890909-42.077091 41.890909z m127.007031 181.372121H72.921212a56.32 56.32 0 0 0-56.475151 55.854546v163.343515a56.32 56.32 0 0 0 56.475151 55.885576h903.19903a56.32 56.32 0 0 0 56.475152-55.854546v-163.343515a56.32 56.32 0 0 0-56.475152-55.885576h-0.620606z m-127.007031 179.355152h-162.288484c-23.272727 0-42.108121-18.742303-42.108122-41.890909 0-23.117576 18.835394-41.890909 42.108122-41.890909h162.288484c23.241697 0 42.077091 18.773333 42.077091 41.890909 0 23.148606-18.835394 41.890909-42.077091 41.890909z" fill="#2c2c2c" p-id="15648"></path></svg>