<?xml version="1.0" standalone="no"?><!DOCTYPE svg PUBLIC "-//W3C//DTD SVG 1.1//EN" "http://www.w3.org/Graphics/SVG/1.1/DTD/svg11.dtd"><svg t="1708935675974" class="icon" viewBox="0 0 1278 1024" version="1.1" xmlns="http://www.w3.org/2000/svg" p-id="7472" xmlns:xlink="http://www.w3.org/1999/xlink" width="249.609375" height="200"><path d="M151.614973 578.737968v-183.44385a47.572193 47.572193 0 0 0-47.229946-47.229947H47.229947A47.572193 47.572193 0 0 0 0 395.294118v410.695187a47.572193 47.572193 0 0 0 47.229947 47.229946h57.15508a47.572193 47.572193 0 0 0 47.229946-47.229946v-48.598931h60.235294v-178.652406zM1230.716578 349.090909h-57.155081a47.572193 47.572193 0 0 0-47.229946 46.203209v182.417112h-60.235294v178.652406h60.235294v49.625669a47.572193 47.572193 0 0 0 47.229946 47.229946h57.155081a47.572193 47.572193 0 0 0 47.229946-47.229946v-410.695187a47.572193 47.572193 0 0 0-47.229946-46.203209zM945.625668 578.737968s-38.673797-6.160428-44.834224 16.427807a126.28877 126.28877 0 0 1-64.342246 58.524065H448.684492a126.28877 126.28877 0 0 1-64.342246-58.524065c-6.502674-22.588235-44.834225-16.427807-44.834225-16.427807H235.122995v178.652406h208.085561v-32.171123h397.68984v32.171123h207.401069v-178.652406z" fill="#108EE9" p-id="7473"></path><path d="M518.502674 748.149733h242.994652v83.508021a32.513369 32.513369 0 0 1-32.513369 32.513369h-177.967914a32.513369 32.513369 0 0 1-32.513369-32.513369v-83.508021zM688.59893 942.887701h-2.737967v-65.368984h-92.064172v65.368984h-2.737967a12.663102 12.663102 0 0 0-12.663102 12.663101v55.786096a12.663102 12.663102 0 0 0 12.663102 12.663102h97.882352a12.663102 12.663102 0 0 0 12.663102-12.663102v-55.44385a12.663102 12.663102 0 0 0-13.005348-13.005347zM472.641711 539.721925v89.668449a94.802139 94.802139 0 0 1-71.187166-51.336898 60.235294 60.235294 0 0 0-56.470588-18.139037H308.705882v-20.192514z" fill="#108EE9" p-id="7474"></path><path d="M975.058824 520.898396V121.497326l-125.262033 56.128342H429.518717L308.705882 126.973262v393.925134h243.336899v18.823529h-65.368984v95.144385h326.160428a86.245989 86.245989 0 0 0 74.951871-62.973262c18.481283-21.219251 87.614973-32.513369 87.614974-32.513369h-333.347594v-18.823529z m-488.727273-4.106952h-88.299465V301.176471a24.641711 24.641711 0 0 1 24.299465-24.299466h41.069519a24.641711 24.641711 0 0 1 24.299465 24.299466z" fill="#108EE9" p-id="7475"></path><path d="M308.705882 113.967914l123.550802 49.967915h410.695188l124.57754-50.310161L929.540107 18.823529a28.748663 28.748663 0 0 0-27.037433-18.139037h-99.593583v136.898396h-51.336898v-136.898396H708.449198v134.160428h-49.283423V0H616.042781v133.13369h-51.336899V0h-46.203208v136.898396h-49.967915V0h-96.171123s-19.508021 0-25.326203 14.032086z" fill="#108EE9" p-id="7476"></path></svg>