<?xml version="1.0" standalone="no"?><!DOCTYPE svg PUBLIC "-//W3C//DTD SVG 1.1//EN" "http://www.w3.org/Graphics/SVG/1.1/DTD/svg11.dtd"><svg t="1708936838744" class="icon" viewBox="0 0 1501 1024" version="1.1" xmlns="http://www.w3.org/2000/svg" p-id="42930" xmlns:xlink="http://www.w3.org/1999/xlink" width="293.1640625" height="200"><path d="M809.61657 400.356965a2547.857061 2547.857061 0 0 0 691.722048-312.508854L1444.387905 0C984.06904 298.172985 505.028447 377.773061 294.572652 377.773061H0v104.736943h294.572652c143.096848 0 330.837819-29.98095 515.043918-82.153039zM294.572652 541.424535H0v104.736943h294.572652c210.455795 0 689.496388 79.600077 1149.815253 377.773061l56.950713-87.848111a2547.857061 2547.857061 0 0 0-691.722048-312.508853C625.410471 571.405485 437.669501 541.424535 294.572652 541.424535z" p-id="42931"></path><path d="M737.348079 419.602378a250.9759 250.9759 0 0 1 19.638177 90.793838 252.416033 252.416033 0 0 1-20.685546 93.608642c18.787189 4.713162 37.508918 9.688167 56.296106 14.859554-13.681263-33.188519-26.184236-64.544141-26.184235-108.468196 0-31.355622 15.186857-76.58889 26.184235-105.391549-18.328965 5.105926-36.788851 10.01547-55.248737 14.597711zM827.356389 395.120118c12.502973 30.962859 25.59509 71.02474 25.595091 114.948795s-14.008566 87.324426-26.184236 118.483666c24.613182 7.200665 49.095442 14.597711 73.381321 22.452983-18.067123-43.793134-35.283258-83.593173-35.283258-140.936649 0-41.567474 21.929297-103.165889 35.348718-137.139935-24.220418 7.78981-48.506297 15.121396-72.857636 22.19114zM1037.419421 324.226299q-43.662213 16.888832-88.109954 32.20661a474.982037 474.982037 0 0 1 28.344436 153.636004 476.356709 476.356709 0 0 1-29.588187 157.105414q45.822413 15.841463 91.121141 33.31944c-30.373713-73.643163-42.025698-91.186601-42.025699-190.293933 0-70.566515 20.227322-135.241578 40.258263-185.973535zM1265.876878 801.106693c-36.788851-88.764559-70.042831-173.27418-70.042831-291.03778 0-89.877389 36.330627-210.063031 64.41322-284.426261q-66.115195 33.188519-134.325129 62.514863c23.173049 63.234929 43.793134 139.627437 43.793134 221.911398 0 83.724094-21.405613 161.294892-44.971425 225.184427q71.679345 30.831938 141.133031 65.853353z" fill="#f4ea2a" p-id="42932"></path></svg>