<?xml version="1.0" standalone="no"?><!DOCTYPE svg PUBLIC "-//W3C//DTD SVG 1.1//EN" "http://www.w3.org/Graphics/SVG/1.1/DTD/svg11.dtd"><svg t="1708936361724" class="icon" viewBox="0 0 1024 1024" version="1.1" xmlns="http://www.w3.org/2000/svg" p-id="29039" xmlns:xlink="http://www.w3.org/1999/xlink" width="200" height="200"><path d="M825.30408 275.401928l36.12931-34.234202a84.821349 84.821349 0 0 0 0-120.125369L819.43536 79.472255a85.340975 85.340975 0 0 0-119.208382-2.139638l-32.247395 31.39154z m-130.823557 123.090296l92.034984-87.236082-157.324498-165.883049L538.50094 232.303513l-160.533954-168.511746a55.661144 55.661144 0 0 0-39.338766-17.942389 56.455867 56.455867 0 0 0-39.736127 16.047282L180.509 180.340885a55.661144 55.661144 0 0 0 0 77.332617l155.887884 166.158145-92.310081 87.236082 157.049402 166.677771 91.698755-86.960986 174.991791 187.279424A55.661144 55.661144 0 0 0 707.318349 794.722546a56.455867 56.455867 0 0 0 39.736127-16.047283l118.780454-118.260828a55.661144 55.661144 0 0 0 0-77.332617z m-319.203367-12.593296l-57.800782-61.529864a28.885108 28.885108 0 0 0 18.981642-7.763828l41.50897-41.203308a27.631892 27.631892 0 0 0-39.338766-38.788573L297.730575 277.816662a26.74547 26.74547 0 0 0-7.763828 17.392197l-70.302379-74.917883L337.833498 100.868631l159.739231 169.092504z m333.172144 354.232292l-106.981881-115.051372a26.74547 26.74547 0 0 0 12.043103-6.418913l41.203307-41.203307a27.509627 27.509627 0 1 0-39.094236-38.758007l-41.264439 41.203307a24.605833 24.605833 0 0 0-6.113251 10.178562l-34.234202-36.373839 122.540104-115.846095 172.577057 183.825438zM204.32011 548.052894l-16.322379 15.527656a86.166264 86.166264 0 0 0-24.086206 41.99803l-25.125459 107.012447a56.180771 56.180771 0 0 0 70.608042 65.839706l102.733172-30.230023a85.585505 85.585505 0 0 0 34.509298-19.806931l14.702367-13.907644z" fill="#20416C" p-id="29040"></path></svg>