<?xml version="1.0" standalone="no"?><!DOCTYPE svg PUBLIC "-//W3C//DTD SVG 1.1//EN" "http://www.w3.org/Graphics/SVG/1.1/DTD/svg11.dtd"><svg t="1708935320485" class="icon" viewBox="0 0 1024 1024" version="1.1" xmlns="http://www.w3.org/2000/svg" p-id="6479" xmlns:xlink="http://www.w3.org/1999/xlink" width="200" height="200"><path d="M855.9 411.8c16-16 24.8-37.3 24.8-60 0-19.4-6.3-37.7-18.3-52.8-2.1-2.6-4.3-5.1-6.5-7.3l-36.2-36.2c-16-16-37.3-24.8-60-24.8-21.1 0-41.3 7.7-56.9 21.8-1.1 1-2.2 2-3.2 3L543.9 411.3c-9.9 9.9-17 21.7-21 34.7l-3.8-3.8c6.8-21.5 10.2-43.9 10.2-66.8 0-42.5-12.1-83.8-34.9-119.6-22.2-34.7-53.4-62.7-90.4-80.7-30.6-15-63.4-22.5-97.6-22.5-5.1 0-10.4 0.2-15.7 0.6l-48.2 3.4 131.6 131.6-156.7 156.7L86.6 314.1 84 363.4c-0.2 4.1-0.3 8.1-0.3 12.1 0 122.9 100 222.9 222.9 222.9 24.9 0 49.3-4.1 72.6-12.1l48 48-151.4 155.4-1.9 2-47.5 98.8 98.9-41.7 3.2-1.3 153.7-157.9 186.7 186.7c6.5 6.5 15.2 10.1 24.5 10.1 6.4 0 12.7-1.8 18.2-5.2 2.3-1.4 4.4-3.1 6.2-4.9l93.1-93.1c13.5-13.5 13.5-35.4 0-48.9L665.5 588.6c13-4 24.9-11.2 34.7-21l155.7-155.8zM309.2 819.1l-14.1 6 6.7-13.9 149-153.1 7.7 7.7-149.3 153.3z m463.9-60.6l-79.8 79.8-195.2-195.2-108.5-108.5-13.6 5.8c-22 9.3-45.4 14-69.5 14-30.7 0-61.1-8-87.7-23.1-41.6-23.5-71.5-62.3-84.3-107l58.4 58.4c11.4 11.4 29 13.4 42.7 4.9 2.3-1.4 4.4-3.1 6.2-4.9l170.1-170.1c6.5-6.5 10.1-15.2 10.1-24.5s-3.6-17.9-10.1-24.5L350.3 202c77.5 19.6 134.9 89.9 134.9 173.4 0 22.3-4 44-12 64.6l-5.2 13.4 305.1 305.1zM668.3 537.2l-0.3 0.2c-7.5 7.1-17.5 11-27.9 11-7.2 0-14.1-1.8-20.1-5.2l-51.7-51.7c-3.4-6.1-5.2-12.9-5.2-20.1 0-11 4.2-21.2 11.9-28.9l155.8-155.8c7.7-7.7 17.9-11.9 28.9-11.9s21.2 4.2 28.9 11.9l36.2 36.2c7.7 7.7 11.9 17.9 11.9 28.9s-4.2 21.2-11.9 28.9L669 536.5c-0.2 0.2-0.5 0.4-0.7 0.7z" fill="#287492" p-id="6480"></path><path d="M772.7 405.5c-3.5-3.5-9.2-3.5-12.7 0l-75.7 75.7c-3.5 3.5-3.5 9.2 0 12.7l0.9 0.9c3.5 3.5 9.2 3.5 12.7 0l75.7-75.7c3.5-3.5 3.5-9.2 0-12.7l-0.9-0.9zM743.7 377.2l-5.8-5.8c-3.5-3.5-9.2-3.5-12.7 0l-75.7 75.7c-3.5 3.5-3.5 9.2 0 12.7l5.8 5.8c3.5 3.5 9.2 3.5 12.7 0l75.7-75.7c3.5-3.5 3.5-9.2 0-12.7zM708.4 344.9l-5.8-5.8c-3.5-3.5-9.2-3.5-12.7 0l-75.7 75.7c-3.5 3.5-3.5 9.2 0 12.7l5.8 5.8c3.5 3.5 9.2 3.5 12.7 0l75.7-75.7c3.5-3.4 3.5-9.2 0-12.7z" fill="#C85E50" p-id="6481"></path><path d="M660.589073 765.799989a36.2 36.2 0 1 0 71.466037-11.591613 36.2 36.2 0 1 0-71.466037 11.591613Z" fill="#C85E50" p-id="6482"></path></svg>