<?xml version="1.0" standalone="no"?><!DOCTYPE svg PUBLIC "-//W3C//DTD SVG 1.1//EN" "http://www.w3.org/Graphics/SVG/1.1/DTD/svg11.dtd"><svg t="1601301841658" class="icon" viewBox="32 0 960 960" version="1.1" xmlns="http://www.w3.org/2000/svg" p-id="8735" xmlns:xlink="http://www.w3.org/1999/xlink" width="128" height="128"><defs><style type="text/css"></style></defs><path d="M512 620.256209c-166.985621 0-302.682353-135.864052-302.682353-302.682353S345.014379 14.724183 512 14.724183 814.682353 150.588235 814.682353 317.406536s-135.864052 302.849673-302.682353 302.849673z m0-488.407843c-102.4 0-185.55817 83.32549-185.55817 185.55817s83.15817 185.72549 185.55817 185.72549 185.55817-83.32549 185.55817-185.55817-83.32549-185.72549-185.55817-185.72549z" p-id="8736"></path><path d="M512 1015.968627c-32.29281 0-58.562092-26.269281-58.562092-58.562091V573.406536c0-32.29281 26.269281-58.562092 58.562092-58.562092s58.562092 26.269281 58.562092 58.562092v384c0 32.460131-26.269281 58.562092-58.562092 58.562091z" p-id="8737"></path><path d="M707.764706 771.513725H537.098039c-32.29281 0-58.562092-26.269281-58.562091-58.562091s26.269281-58.562092 58.562091-58.562092h170.666667c32.29281 0 58.562092 26.269281 58.562091 58.562092s-26.269281 58.562092-58.562091 58.562091zM707.764706 935.654902H537.098039c-32.29281 0-58.562092-26.269281-58.562091-58.562092s26.269281-58.562092 58.562091-58.562091h170.666667c32.29281 0 58.562092 26.269281 58.562091 58.562091s-26.269281 58.562092-58.562091 58.562092z" p-id="8738"></path></svg>
