<?xml version="1.0" standalone="no"?><!DOCTYPE svg PUBLIC "-//W3C//DTD SVG 1.1//EN" "http://www.w3.org/Graphics/SVG/1.1/DTD/svg11.dtd"><svg t="1708936729403" class="icon" viewBox="0 0 1024 1024" version="1.1" xmlns="http://www.w3.org/2000/svg" p-id="39542" xmlns:xlink="http://www.w3.org/1999/xlink" width="200" height="200"><path d="M558.545455 46.545455m46.545454 0l372.363636 0q46.545455 0 46.545455 46.545454l0 0q0 46.545455-46.545455 46.545455l-372.363636 0q-46.545455 0-46.545454-46.545455l0 0q0-46.545455 46.545454-46.545454Z" fill="#666666" p-id="39543"></path><path d="M558.545455 279.272727m46.545454 0l372.363636 0q46.545455 0 46.545455 46.545455l0 0q0 46.545455-46.545455 46.545454l-372.363636 0q-46.545455 0-46.545454-46.545454l0 0q0-46.545455 46.545454-46.545455Z" fill="#666666" p-id="39544"></path><path d="M232.727273 465.454545A232.727273 232.727273 0 1 1 232.727273 0a232.727273 232.727273 0 0 1 0 465.454545z m0-93.090909a139.636364 139.636364 0 1 0 0-279.272727 139.636364 139.636364 0 0 0 0 279.272727z" fill="#666666" p-id="39545"></path><path d="M558.545455 605.090909m46.545454 0l372.363636 0q46.545455 0 46.545455 46.545455l0 0q0 46.545455-46.545455 46.545454l-372.363636 0q-46.545455 0-46.545454-46.545454l0 0q0-46.545455 46.545454-46.545455Z" fill="#666666" p-id="39546"></path><path d="M558.545455 837.818182m46.545454 0l372.363636 0q46.545455 0 46.545455 46.545454l0 0q0 46.545455-46.545455 46.545455l-372.363636 0q-46.545455 0-46.545454-46.545455l0 0q0-46.545455 46.545454-46.545454Z" fill="#666666" p-id="39547"></path><path d="M232.727273 1024a232.727273 232.727273 0 1 1 0-465.454545 232.727273 232.727273 0 0 1 0 465.454545z m0-93.090909a139.636364 139.636364 0 1 0 0-279.272727 139.636364 139.636364 0 0 0 0 279.272727z" fill="#666666" p-id="39548"></path></svg>