<?xml version="1.0" standalone="no"?><!DOCTYPE svg PUBLIC "-//W3C//DTD SVG 1.1//EN" "http://www.w3.org/Graphics/SVG/1.1/DTD/svg11.dtd"><svg t="1709803691164" class="icon" viewBox="0 0 1024 1024" version="1.1" xmlns="http://www.w3.org/2000/svg" p-id="5236" xmlns:xlink="http://www.w3.org/1999/xlink" width="200" height="200"><path d="M950.857143 54.857143a18.285714 18.285714 0 0 1 18.285714 18.285714v877.714286a18.285714 18.285714 0 0 1-18.285714 18.285714H73.142857A18.285714 18.285714 0 0 1 54.857143 950.857143V73.142857A18.285714 18.285714 0 0 1 73.142857 54.857143h877.714286M950.857143 0H73.142857a73.142857 73.142857 0 0 0-73.142857 73.142857v877.714286a73.142857 73.142857 0 0 0 73.142857 73.142857h877.714286a73.142857 73.142857 0 0 0 73.142857-73.142857V73.142857a73.142857 73.142857 0 0 0-73.142857-73.142857z" p-id="5237"></path><path d="M1024 733.988571H0v56.466286h1024zM615.862857 169.398857h1.316572l-26.331429 27.136a53.613714 53.613714 0 0 0 0 75.264l41.691429 43.081143a51.2 51.2 0 0 0 73.142857 0L731.428571 286.939429a66.633143 66.633143 0 0 1-16.969142 47.396571 61.513143 61.513143 0 0 1-44.982858 17.481143 91.428571 91.428571 0 0 1-29.257142-5.046857 34.011429 34.011429 0 0 0-11.337143-1.901715 36.059429 36.059429 0 0 0-25.819429 11.117715l-128 131.657143a38.4 38.4 0 0 0-8.923428 37.668571 75.629714 75.629714 0 0 1-12.288 76.580571 60.123429 60.123429 0 0 1-44.836572 17.481143h-1.097143l26.331429-27.136a52.736 52.736 0 0 0 14.994286-37.668571 53.467429 53.467429 0 0 0-14.994286-37.668572l-42.642286-41.179428a50.176 50.176 0 0 0-73.142857 0l-25.819429 27.136a65.828571 65.828571 0 0 1 16.969143-47.396572 60.635429 60.635429 0 0 1 44.836572-17.481142 92.452571 92.452571 0 0 1 29.257143 5.046857 35.620571 35.620571 0 0 0 11.337142 1.901714 36.059429 36.059429 0 0 0 25.234286-10.898286l128-131.657143a38.4 38.4 0 0 0 8.777143-37.668571 75.849143 75.849143 0 0 1 12.068571-76.8 60.854857 60.854857 0 0 1 46.445715-18.797714m0-37.668572a96.914286 96.914286 0 0 0-70.729143 28.598857 113.517714 113.517714 0 0 0-21.065143 114.834286l-128 131.657143a131.657143 131.657143 0 0 0-40.96-7.314286 96.182857 96.182857 0 0 0-70.582857 28.598857 115.492571 115.492571 0 0 0-18.285714 124.342858 15.140571 15.140571 0 0 0 10.752 9.216h3.072a15.140571 15.140571 0 0 0 10.459428-4.534858l54.857143-56.466285a14.628571 14.628571 0 0 1 20.992 0l40.96 44.397714a15.36 15.36 0 0 1 0 21.430857l-54.857143 56.466286a14.628571 14.628571 0 0 0-4.022857 13.750857 14.628571 14.628571 0 0 0 8.923429 11.117714 131.657143 131.657143 0 0 0 50.102857 10.386286 96.914286 96.914286 0 0 0 70.729143-28.598857 113.517714 113.517714 0 0 0 21.065142-114.834286l128-131.657143a126.317714 126.317714 0 0 0 40.740572 7.314286 96.914286 96.914286 0 0 0 70.729143-28.598857 115.492571 115.492571 0 0 0 18.285714-124.342857 14.628571 14.628571 0 0 0-10.752-9.216h-2.925714a14.043429 14.043429 0 0 0-10.386286 4.534857l-54.857143 56.466286a14.628571 14.628571 0 0 1-20.845714 0l-40.813714-44.763429a15.579429 15.579429 0 0 1 0-21.942857l54.857142-56.466286a15.725714 15.725714 0 0 0 3.949715-13.897143 15.36 15.36 0 0 0-8.923429-11.190857 132.827429 132.827429 0 0 0-50.176-8.923428z" p-id="5238"></path><path d="M122.294857 835.803429h414.061714a24.941714 24.941714 0 0 1 28.233143 28.233142 24.941714 24.941714 0 0 1-28.233143 28.233143H122.294857a24.941714 24.941714 0 0 1-28.233143-28.233143 24.941714 24.941714 0 0 1 28.233143-28.233142z" p-id="5239"></path><path d="M675.84 835.803429h225.865143a24.941714 24.941714 0 0 1 28.233143 28.233142 24.941714 24.941714 0 0 1-28.233143 28.233143H675.84a24.941714 24.941714 0 0 1-28.233143-28.233143 24.941714 24.941714 0 0 1 28.233143-28.233142z" p-id="5240"></path></svg>