<?xml version="1.0" standalone="no"?><!DOCTYPE svg PUBLIC "-//W3C//DTD SVG 1.1//EN" "http://www.w3.org/Graphics/SVG/1.1/DTD/svg11.dtd"><svg t="1708935233764" class="icon" viewBox="0 0 1024 1024" version="1.1" xmlns="http://www.w3.org/2000/svg" p-id="5495" xmlns:xlink="http://www.w3.org/1999/xlink" width="200" height="200"><path d="M0 650.077481V56.305924A90.447788 90.447788 0 0 1 51.187203 0h716.620845v510.592352h64.59825V414.616346h61.68058c4.094976-36.445289 5.11872-69.307473-21.140315-97.255686-35.831042-38.339215-45.147113-83.9982-42.127068-136.106773 3.429543-60.093777-0.716621-120.648238-1.586803-180.997951h194.511372v261.054736c-14.793102 20.474881-28.306523 41.973507-44.686428 61.015147-23.853237 27.692277-20.833192 58.762909-17.352462 92.546463H1023.744064v609.127718H127.968008v-319.56171C76.524869 702.288428 20.730817 715.341165 0 650.077481z m413.592602-75.194002v-317.36066H98.228243v317.36066zM481.15971 925.771757h253.427843v-187.498725H481.15971z m-255.219395-188.471282v188.573656h187.242789v-188.573656z m475.47793-514.482579V97.818745h-187.703474V222.664334z m-188.829592 158.168457h189.392652v-58.865283h-189.392652zM97.255686 157.963709h125.408648V98.432992H97.255686z m507.930617 352.67983v-61.424644h-91.829842v61.424644z m96.846189-60.708023h-61.066334v60.298525h61.066334z m127.968008 188.778406v-60.708023h-60.861585v60.708023z" p-id="5496"></path><path d="M160.932567 382.573157V321.711572h189.392652v60.810398zM160.932567 449.014146h189.392652v61.424644h-189.392652zM670.091677 801.284479v61.424644h-124.692027v-61.424644zM351.297776 800.977356v61.424644H289.054136v-61.424644z" p-id="5497"></path></svg>